ISO-10303-21;
HEADER;
FILE_DESCRIPTION(('ViewDefinition [DesignTransferView]'),'2;1');
FILE_NAME('/dev/null','2026-09-19T21:57:47+08:00',(''),(''),'IfcOpenShell 0.8.5','IfcOpenShell 0.8.5','Nobody');
FILE_SCHEMA(('IFC4'));
ENDSEC;
DATA;
#1=IFCPROJECT('0kcNzqEUPFJ91S8g16z27B',$,'CCA Synthetic Harbor East',$,$,$,$,(#10),#5);
#2=IFCSIUNIT(*,.LENGTHUNIT.,$,.METRE.);
#3=IFCSIUNIT(*,.AREAUNIT.,$,.SQUARE_METRE.);
#4=IFCSIUNIT(*,.VOLUMEUNIT.,$,.CUBIC_METRE.);
#5=IFCUNITASSIGNMENT((#3,#4,#2));
#6=IFCCARTESIANPOINT((0.,0.,0.));
#7=IFCDIRECTION((0.,0.,1.));
#8=IFCDIRECTION((1.,0.,0.));
#9=IFCAXIS2PLACEMENT3D(#6,#7,#8);
#10=IFCGEOMETRICREPRESENTATIONCONTEXT($,'Model',3,1.0000000000000001E-05,#9,$);
#11=IFCGEOMETRICREPRESENTATIONSUBCONTEXT('Body','Model',*,*,*,*,#10,$,.MODEL_VIEW.,$);
#12=IFCSITE('2NBjdaocv2PgX7mrsaDYCf',$,'Synthetic site',$,$,$,$,$,$,$,$,$,$,$);
#13=IFCBUILDING('3txxVVbSvBtuDXfunx4OAE',$,'Building A',$,$,$,$,$,$,$,$,$);
#14=IFCRELAGGREGATES('0DryoNZWn2cOhlzQoiuj12',$,$,$,#1,(#12));
#15=IFCRELAGGREGATES('2_haHSmjz7G8IGPuCCUosI',$,$,$,#12,(#13));
#16=IFCBUILDINGSTOREY('1AUH5uANr2O8lk9dT$fw5G',$,'L02-E',$,$,$,$,$,$,3.6000000000000001);
#17=IFCRELAGGREGATES('1$GPDJghvFb8Hk3fhgYFSZ',$,$,$,#13,(#18,#16));
#18=IFCBUILDINGSTOREY('05S0rbC2198A_gJqmhJAWD',$,'L03-E',$,$,$,$,$,$,7.2000000000000002);
#19=IFCSPACE('0gYxDjKXv2nQ1L8mP5RtWa',$,'L02-E-ZONE',$,$,$,$,$,$,$,$);
#20=IFCRELAGGREGATES('3VklMd84L7vx8hkG_8OYIL',$,$,$,#16,(#19));
#21=IFCSPACE('3fKp8sVdL4Qx2mN7cR0aYe',$,'L03-E-ZONE',$,$,$,$,$,$,$,$);
#22=IFCRELAGGREGATES('1lNZ8Giaf7kfb7el$kWMbc',$,$,$,#18,(#21));
#23=IFCWALL('2EG_GvBOnHSANjPr7CHowU',$,'East core wall',$,$,#40,#35,$,$);
#24=IFCRELCONTAINEDINSPATIALSTRUCTURE('0iCBlhh1zCUgV8B2jKv44k',$,$,$,(#940,#634,#526,#130,#220,#1030,#1120,#724,#922,#616,#418,#310,#508,#202,#1012,#598,#814,#904,#706,#796,#400,#490,#292,#1102,#886,#688,#778,#382,#994,#1084,#580,#184,#274,#23,#976,#670,#472,#364,#562,#256,#166,#868,#1066,#958,#148,#51,#760,#850,#454,#544,#346,#652,#238,#1048,#1138,#742,#832,#436,#328),#19);
#25=IFCCARTESIANPOINTLIST2D(((0.,0.),(0.,0.20000000000000001),(8.,0.20000000000000001),(8.,0.),(0.,0.)));
#26=IFCINDEXEDPOLYCURVE(#25,$,.F.);
#27=IFCDIRECTION((0.,0.,1.));
#28=IFCARBITRARYCLOSEDPROFILEDEF(.AREA.,$,#26);
#29=IFCCARTESIANPOINT((0.,0.,0.));
#30=IFCDIRECTION((0.,0.,1.));
#31=IFCDIRECTION((1.,0.,0.));
#32=IFCAXIS2PLACEMENT3D(#29,#30,#31);
#33=IFCEXTRUDEDAREASOLID(#28,#32,#27,3.2000000000000002);
#34=IFCSHAPEREPRESENTATION(#11,'Body','SweptSolid',(#33));
#35=IFCPRODUCTDEFINITIONSHAPE($,$,(#34));
#36=IFCCARTESIANPOINT((0.59999999999999998,0.,3.6000000000000001));
#37=IFCDIRECTION((0.,0.,1.));
#38=IFCDIRECTION((1.,0.,0.));
#39=IFCAXIS2PLACEMENT3D(#36,#37,#38);
#40=IFCLOCALPLACEMENT($,#39);
#41=IFCPROPERTYSET('0496r2z695nR8L5hsxXazq',$,'CCA_Coordination',$,(#43,#44,#45,#46,#47,#48,#49,#50));
#42=IFCRELDEFINESBYPROPERTIES('2JehGm2jn68fmI2S9l8ffj',$,$,$,(#23),#41);
#43=IFCPROPERTYSINGLEVALUE('DrawingRevision',$,IFCLABEL('V17'),$);
#44=IFCPROPERTYSINGLEVALUE('Synthetic',$,IFCBOOLEAN(.T.),$);
#45=IFCPROPERTYSINGLEVALUE('Area',$,IFCLABEL('L02-E'),$);
#46=IFCPROPERTYSINGLEVALUE('Space',$,IFCLABEL('L02-E-ZONE'),$);
#47=IFCPROPERTYSINGLEVALUE('ChangeStatus',$,IFCLABEL('changed'),$);
#48=IFCPROPERTYSINGLEVALUE('WorkPackageIds',$,IFCLABEL('WP-100,WP-200'),$);
#49=IFCPROPERTYSINGLEVALUE('Width',$,IFCREAL(0.20000000000000001),$);
#50=IFCPROPERTYSINGLEVALUE('Height',$,IFCREAL(3.2000000000000002),$);
#51=IFCDUCTSEGMENT('2CU_Px_b9MJe1kH$vDvU8G',$,'Supply duct E-01',$,$,#67,#62,$,$);
#52=IFCCARTESIANPOINTLIST2D(((0.,0.),(0.,0.59999999999999998),(6.,0.59999999999999998),(6.,0.),(0.,0.)));
#53=IFCINDEXEDPOLYCURVE(#52,$,.F.);
#54=IFCDIRECTION((0.,0.,1.));
#55=IFCARBITRARYCLOSEDPROFILEDEF(.AREA.,$,#53);
#56=IFCCARTESIANPOINT((0.,0.,0.));
#57=IFCDIRECTION((0.,0.,1.));
#58=IFCDIRECTION((1.,0.,0.));
#59=IFCAXIS2PLACEMENT3D(#56,#57,#58);
#60=IFCEXTRUDEDAREASOLID(#55,#59,#54,0.40000000000000002);
#61=IFCSHAPEREPRESENTATION(#11,'Body','SweptSolid',(#60));
#62=IFCPRODUCTDEFINITIONSHAPE($,$,(#61));
#63=IFCCARTESIANPOINT((1.,0.80000000000000004,6.2000000000000002));
#64=IFCDIRECTION((0.,0.,1.));
#65=IFCDIRECTION((1.,0.,0.));
#66=IFCAXIS2PLACEMENT3D(#63,#64,#65);
#67=IFCLOCALPLACEMENT($,#66);
#68=IFCPROPERTYSET('0Ve4j6bRb3rvX1YNG52jOj',$,'CCA_Coordination',$,(#70,#71,#72,#73,#74,#75,#76,#77));
#69=IFCRELDEFINESBYPROPERTIES('3vwnLcdh95ufIAOJLq9FQk',$,$,$,(#51),#68);
#70=IFCPROPERTYSINGLEVALUE('DrawingRevision',$,IFCLABEL('V17'),$);
#71=IFCPROPERTYSINGLEVALUE('Synthetic',$,IFCBOOLEAN(.T.),$);
#72=IFCPROPERTYSINGLEVALUE('Area',$,IFCLABEL('L02-E'),$);
#73=IFCPROPERTYSINGLEVALUE('Space',$,IFCLABEL('L02-E-ZONE'),$);
#74=IFCPROPERTYSINGLEVALUE('ChangeStatus',$,IFCLABEL('affected'),$);
#75=IFCPROPERTYSINGLEVALUE('WorkPackageIds',$,IFCLABEL('WP-200'),$);
#76=IFCPROPERTYSINGLEVALUE('Width',$,IFCREAL(0.59999999999999998),$);
#77=IFCPROPERTYSINGLEVALUE('Height',$,IFCREAL(0.40000000000000002),$);
#78=IFCCABLECARRIERSEGMENT('1xhjFnj$HKePcWkxtV734X',$,'Cable tray E-01',$,$,#95,#90,$,$);
#79=IFCRELCONTAINEDINSPATIALSTRUCTURE('32cv5_LlD7$ReMrk6k4bjY',$,$,$,(#78),#21);
#80=IFCCARTESIANPOINTLIST2D(((0.,0.),(0.,0.29999999999999999),(6.,0.29999999999999999),(6.,0.),(0.,0.)));
#81=IFCINDEXEDPOLYCURVE(#80,$,.F.);
#82=IFCDIRECTION((0.,0.,1.));
#83=IFCARBITRARYCLOSEDPROFILEDEF(.AREA.,$,#81);
#84=IFCCARTESIANPOINT((0.,0.,0.));
#85=IFCDIRECTION((0.,0.,1.));
#86=IFCDIRECTION((1.,0.,0.));
#87=IFCAXIS2PLACEMENT3D(#84,#85,#86);
#88=IFCEXTRUDEDAREASOLID(#83,#87,#82,0.14999999999999999);
#89=IFCSHAPEREPRESENTATION(#11,'Body','SweptSolid',(#88));
#90=IFCPRODUCTDEFINITIONSHAPE($,$,(#89));
#91=IFCCARTESIANPOINT((1.,0.80000000000000004,9.8000000000000007));
#92=IFCDIRECTION((0.,0.,1.));
#93=IFCDIRECTION((1.,0.,0.));
#94=IFCAXIS2PLACEMENT3D(#91,#92,#93);
#95=IFCLOCALPLACEMENT($,#94);
#96=IFCPROPERTYSET('343p7I_LT5y9BfMDCoHkSt',$,'CCA_Coordination',$,(#98,#99,#100,#101,#102,#103,#104,#105));
#97=IFCRELDEFINESBYPROPERTIES('21eP1ikW98GAinESDbpvOW',$,$,$,(#78),#96);
#98=IFCPROPERTYSINGLEVALUE('DrawingRevision',$,IFCLABEL('V17'),$);
#99=IFCPROPERTYSINGLEVALUE('Synthetic',$,IFCBOOLEAN(.T.),$);
#100=IFCPROPERTYSINGLEVALUE('Area',$,IFCLABEL('L03-E'),$);
#101=IFCPROPERTYSINGLEVALUE('Space',$,IFCLABEL('L03-E-ZONE'),$);
#102=IFCPROPERTYSINGLEVALUE('ChangeStatus',$,IFCLABEL('unchanged'),$);
#103=IFCPROPERTYSINGLEVALUE('WorkPackageIds',$,IFCLABEL('WP-300'),$);
#104=IFCPROPERTYSINGLEVALUE('Width',$,IFCREAL(0.29999999999999999),$);
#105=IFCPROPERTYSINGLEVALUE('Height',$,IFCREAL(0.14999999999999999),$);
#106=IFCSURFACESTYLE('Concrete floor',.BOTH.,(#107));
#107=IFCSURFACESTYLESHADING(#108,0.64000000000000001);
#108=IFCCOLOURRGB($,0.83999999999999997,0.87,0.89000000000000001);
#109=IFCSURFACESTYLE('Quiet partitions',.BOTH.,(#110));
#110=IFCSURFACESTYLESHADING(#111,0.47999999999999998);
#111=IFCCOLOURRGB($,0.88,0.90000000000000002,0.92000000000000004);
#112=IFCSURFACESTYLE('Steel beams',.BOTH.,(#113));
#113=IFCSURFACESTYLESHADING(#114,0.40000000000000002);
#114=IFCCOLOURRGB($,0.68000000000000005,0.72999999999999998,0.76000000000000001);
#115=IFCSURFACESTYLE('Columns',.BOTH.,(#116));
#116=IFCSURFACESTYLESHADING(#117,0.38);
#117=IFCCOLOURRGB($,0.77000000000000002,0.81000000000000005,0.83999999999999997);
#118=IFCSURFACESTYLE('Mechanical equipment',.BOTH.,(#119));
#119=IFCSURFACESTYLESHADING(#120,0.);
#120=IFCCOLOURRGB($,0.41999999999999998,0.56000000000000005,0.65000000000000002);
#121=IFCSURFACESTYLE('Galvanized ducts',.BOTH.,(#122));
#122=IFCSURFACESTYLESHADING(#123,0.14000000000000001);
#123=IFCCOLOURRGB($,0.56999999999999995,0.68999999999999995,0.75);
#124=IFCSURFACESTYLE('Cable trays',.BOTH.,(#125));
#125=IFCSURFACESTYLESHADING(#126,0.);
#126=IFCCOLOURRGB($,0.63,0.64000000000000001,0.63);
#127=IFCSURFACESTYLE('Fire protection',.BOTH.,(#128));
#128=IFCSURFACESTYLESHADING(#129,0.);
#129=IFCCOLOURRGB($,0.67000000000000004,0.34000000000000002,0.31);
#130=IFCSLAB('02pnDHtGjDrxw5A76acMnC',$,'Level 2 slab',$,$,#147,#141,$,$);
#131=IFCCARTESIANPOINTLIST2D(((0.,0.),(0.,19.),(28.,19.),(28.,0.),(0.,0.)));
#132=IFCINDEXEDPOLYCURVE(#131,$,.F.);
#133=IFCDIRECTION((0.,0.,1.));
#134=IFCARBITRARYCLOSEDPROFILEDEF(.AREA.,$,#132);
#135=IFCCARTESIANPOINT((0.,0.,0.));
#136=IFCDIRECTION((0.,0.,1.));
#137=IFCDIRECTION((1.,0.,0.));
#138=IFCAXIS2PLACEMENT3D(#135,#136,#137);
#139=IFCEXTRUDEDAREASOLID(#134,#138,#133,0.17999999999999999);
#140=IFCSHAPEREPRESENTATION(#11,'Body','SweptSolid',(#139));
#141=IFCPRODUCTDEFINITIONSHAPE($,$,(#140));
#142=IFCSTYLEDITEM(#139,(#106),'Concrete floor');
#143=IFCCARTESIANPOINT((-4.,-5.,3.3999999999999999));
#144=IFCDIRECTION((0.,0.,1.));
#145=IFCDIRECTION((1.,0.,0.));
#146=IFCAXIS2PLACEMENT3D(#143,#144,#145);
#147=IFCLOCALPLACEMENT($,#146);
#148=IFCCOLUMN('05jmnxXGj2hRg$sSLGNytS',$,'Column -3:-4',$,$,#165,#159,$,$);
#149=IFCCARTESIANPOINTLIST2D(((0.,0.),(0.,0.28000000000000003),(0.28000000000000003,0.28000000000000003),(0.28000000000000003,0.),(0.,0.)));
#150=IFCINDEXEDPOLYCURVE(#149,$,.F.);
#151=IFCDIRECTION((0.,0.,1.));
#152=IFCARBITRARYCLOSEDPROFILEDEF(.AREA.,$,#150);
#153=IFCCARTESIANPOINT((0.,0.,0.));
#154=IFCDIRECTION((0.,0.,1.));
#155=IFCDIRECTION((1.,0.,0.));
#156=IFCAXIS2PLACEMENT3D(#153,#154,#155);
#157=IFCEXTRUDEDAREASOLID(#152,#156,#151,4.);
#158=IFCSHAPEREPRESENTATION(#11,'Body','SweptSolid',(#157));
#159=IFCPRODUCTDEFINITIONSHAPE($,$,(#158));
#160=IFCSTYLEDITEM(#157,(#115),'Columns');
#161=IFCCARTESIANPOINT((-3.,-4.,3.6000000000000001));
#162=IFCDIRECTION((0.,0.,1.));
#163=IFCDIRECTION((1.,0.,0.));
#164=IFCAXIS2PLACEMENT3D(#161,#162,#163);
#165=IFCLOCALPLACEMENT($,#164);
#166=IFCCOLUMN('1ASoBL4xb4MeezcqBcLwqd',$,'Column -3:4',$,$,#183,#177,$,$);
#167=IFCCARTESIANPOINTLIST2D(((0.,0.),(0.,0.28000000000000003),(0.28000000000000003,0.28000000000000003),(0.28000000000000003,0.),(0.,0.)));
#168=IFCINDEXEDPOLYCURVE(#167,$,.F.);
#169=IFCDIRECTION((0.,0.,1.));
#170=IFCARBITRARYCLOSEDPROFILEDEF(.AREA.,$,#168);
#171=IFCCARTESIANPOINT((0.,0.,0.));
#172=IFCDIRECTION((0.,0.,1.));
#173=IFCDIRECTION((1.,0.,0.));
#174=IFCAXIS2PLACEMENT3D(#171,#172,#173);
#175=IFCEXTRUDEDAREASOLID(#170,#174,#169,4.);
#176=IFCSHAPEREPRESENTATION(#11,'Body','SweptSolid',(#175));
#177=IFCPRODUCTDEFINITIONSHAPE($,$,(#176));
#178=IFCSTYLEDITEM(#175,(#115),'Columns');
#179=IFCCARTESIANPOINT((-3.,4.,3.6000000000000001));
#180=IFCDIRECTION((0.,0.,1.));
#181=IFCDIRECTION((1.,0.,0.));
#182=IFCAXIS2PLACEMENT3D(#179,#180,#181);
#183=IFCLOCALPLACEMENT($,#182);
#184=IFCCOLUMN('252YJ$dkb3I85p3j24C1a$',$,'Column -3:13',$,$,#201,#195,$,$);
#185=IFCCARTESIANPOINTLIST2D(((0.,0.),(0.,0.28000000000000003),(0.28000000000000003,0.28000000000000003),(0.28000000000000003,0.),(0.,0.)));
#186=IFCINDEXEDPOLYCURVE(#185,$,.F.);
#187=IFCDIRECTION((0.,0.,1.));
#188=IFCARBITRARYCLOSEDPROFILEDEF(.AREA.,$,#186);
#189=IFCCARTESIANPOINT((0.,0.,0.));
#190=IFCDIRECTION((0.,0.,1.));
#191=IFCDIRECTION((1.,0.,0.));
#192=IFCAXIS2PLACEMENT3D(#189,#190,#191);
#193=IFCEXTRUDEDAREASOLID(#188,#192,#187,4.);
#194=IFCSHAPEREPRESENTATION(#11,'Body','SweptSolid',(#193));
#195=IFCPRODUCTDEFINITIONSHAPE($,$,(#194));
#196=IFCSTYLEDITEM(#193,(#115),'Columns');
#197=IFCCARTESIANPOINT((-3.,13.,3.6000000000000001));
#198=IFCDIRECTION((0.,0.,1.));
#199=IFCDIRECTION((1.,0.,0.));
#200=IFCAXIS2PLACEMENT3D(#197,#198,#199);
#201=IFCLOCALPLACEMENT($,#200);
#202=IFCCOLUMN('0aN5EEYEbC6esLy4NZ6srQ',$,'Column 4:-4',$,$,#219,#213,$,$);
#203=IFCCARTESIANPOINTLIST2D(((0.,0.),(0.,0.28000000000000003),(0.28000000000000003,0.28000000000000003),(0.28000000000000003,0.),(0.,0.)));
#204=IFCINDEXEDPOLYCURVE(#203,$,.F.);
#205=IFCDIRECTION((0.,0.,1.));
#206=IFCARBITRARYCLOSEDPROFILEDEF(.AREA.,$,#204);
#207=IFCCARTESIANPOINT((0.,0.,0.));
#208=IFCDIRECTION((0.,0.,1.));
#209=IFCDIRECTION((1.,0.,0.));
#210=IFCAXIS2PLACEMENT3D(#207,#208,#209);
#211=IFCEXTRUDEDAREASOLID(#206,#210,#205,4.);
#212=IFCSHAPEREPRESENTATION(#11,'Body','SweptSolid',(#211));
#213=IFCPRODUCTDEFINITIONSHAPE($,$,(#212));
#214=IFCSTYLEDITEM(#211,(#115),'Columns');
#215=IFCCARTESIANPOINT((4.,-4.,3.6000000000000001));
#216=IFCDIRECTION((0.,0.,1.));
#217=IFCDIRECTION((1.,0.,0.));
#218=IFCAXIS2PLACEMENT3D(#215,#216,#217);
#219=IFCLOCALPLACEMENT($,#218);
#220=IFCCOLUMN('1TcoZZ9VHCJf8oV8SiyW6C',$,'Column 4:4',$,$,#237,#231,$,$);
#221=IFCCARTESIANPOINTLIST2D(((0.,0.),(0.,0.28000000000000003),(0.28000000000000003,0.28000000000000003),(0.28000000000000003,0.),(0.,0.)));
#222=IFCINDEXEDPOLYCURVE(#221,$,.F.);
#223=IFCDIRECTION((0.,0.,1.));
#224=IFCARBITRARYCLOSEDPROFILEDEF(.AREA.,$,#222);
#225=IFCCARTESIANPOINT((0.,0.,0.));
#226=IFCDIRECTION((0.,0.,1.));
#227=IFCDIRECTION((1.,0.,0.));
#228=IFCAXIS2PLACEMENT3D(#225,#226,#227);
#229=IFCEXTRUDEDAREASOLID(#224,#228,#223,4.);
#230=IFCSHAPEREPRESENTATION(#11,'Body','SweptSolid',(#229));
#231=IFCPRODUCTDEFINITIONSHAPE($,$,(#230));
#232=IFCSTYLEDITEM(#229,(#115),'Columns');
#233=IFCCARTESIANPOINT((4.,4.,3.6000000000000001));
#234=IFCDIRECTION((0.,0.,1.));
#235=IFCDIRECTION((1.,0.,0.));
#236=IFCAXIS2PLACEMENT3D(#233,#234,#235);
#237=IFCLOCALPLACEMENT($,#236);
#238=IFCCOLUMN('18ojqHCbb1_w$4UjfDHsng',$,'Column 4:13',$,$,#255,#249,$,$);
#239=IFCCARTESIANPOINTLIST2D(((0.,0.),(0.,0.28000000000000003),(0.28000000000000003,0.28000000000000003),(0.28000000000000003,0.),(0.,0.)));
#240=IFCINDEXEDPOLYCURVE(#239,$,.F.);
#241=IFCDIRECTION((0.,0.,1.));
#242=IFCARBITRARYCLOSEDPROFILEDEF(.AREA.,$,#240);
#243=IFCCARTESIANPOINT((0.,0.,0.));
#244=IFCDIRECTION((0.,0.,1.));
#245=IFCDIRECTION((1.,0.,0.));
#246=IFCAXIS2PLACEMENT3D(#243,#244,#245);
#247=IFCEXTRUDEDAREASOLID(#242,#246,#241,4.);
#248=IFCSHAPEREPRESENTATION(#11,'Body','SweptSolid',(#247));
#249=IFCPRODUCTDEFINITIONSHAPE($,$,(#248));
#250=IFCSTYLEDITEM(#247,(#115),'Columns');
#251=IFCCARTESIANPOINT((4.,13.,3.6000000000000001));
#252=IFCDIRECTION((0.,0.,1.));
#253=IFCDIRECTION((1.,0.,0.));
#254=IFCAXIS2PLACEMENT3D(#251,#252,#253);
#255=IFCLOCALPLACEMENT($,#254);
#256=IFCCOLUMN('2T7SpQBzf1fxOLFF1OfOjZ',$,'Column 13:-4',$,$,#273,#267,$,$);
#257=IFCCARTESIANPOINTLIST2D(((0.,0.),(0.,0.28000000000000003),(0.28000000000000003,0.28000000000000003),(0.28000000000000003,0.),(0.,0.)));
#258=IFCINDEXEDPOLYCURVE(#257,$,.F.);
#259=IFCDIRECTION((0.,0.,1.));
#260=IFCARBITRARYCLOSEDPROFILEDEF(.AREA.,$,#258);
#261=IFCCARTESIANPOINT((0.,0.,0.));
#262=IFCDIRECTION((0.,0.,1.));
#263=IFCDIRECTION((1.,0.,0.));
#264=IFCAXIS2PLACEMENT3D(#261,#262,#263);
#265=IFCEXTRUDEDAREASOLID(#260,#264,#259,4.);
#266=IFCSHAPEREPRESENTATION(#11,'Body','SweptSolid',(#265));
#267=IFCPRODUCTDEFINITIONSHAPE($,$,(#266));
#268=IFCSTYLEDITEM(#265,(#115),'Columns');
#269=IFCCARTESIANPOINT((13.,-4.,3.6000000000000001));
#270=IFCDIRECTION((0.,0.,1.));
#271=IFCDIRECTION((1.,0.,0.));
#272=IFCAXIS2PLACEMENT3D(#269,#270,#271);
#273=IFCLOCALPLACEMENT($,#272);
#274=IFCCOLUMN('3_ZXp1KH99oPn0p5CJPESP',$,'Column 13:4',$,$,#291,#285,$,$);
#275=IFCCARTESIANPOINTLIST2D(((0.,0.),(0.,0.28000000000000003),(0.28000000000000003,0.28000000000000003),(0.28000000000000003,0.),(0.,0.)));
#276=IFCINDEXEDPOLYCURVE(#275,$,.F.);
#277=IFCDIRECTION((0.,0.,1.));
#278=IFCARBITRARYCLOSEDPROFILEDEF(.AREA.,$,#276);
#279=IFCCARTESIANPOINT((0.,0.,0.));
#280=IFCDIRECTION((0.,0.,1.));
#281=IFCDIRECTION((1.,0.,0.));
#282=IFCAXIS2PLACEMENT3D(#279,#280,#281);
#283=IFCEXTRUDEDAREASOLID(#278,#282,#277,4.);
#284=IFCSHAPEREPRESENTATION(#11,'Body','SweptSolid',(#283));
#285=IFCPRODUCTDEFINITIONSHAPE($,$,(#284));
#286=IFCSTYLEDITEM(#283,(#115),'Columns');
#287=IFCCARTESIANPOINT((13.,4.,3.6000000000000001));
#288=IFCDIRECTION((0.,0.,1.));
#289=IFCDIRECTION((1.,0.,0.));
#290=IFCAXIS2PLACEMENT3D(#287,#288,#289);
#291=IFCLOCALPLACEMENT($,#290);
#292=IFCCOLUMN('36HyMYtiz9YBSDtBYQOxKM',$,'Column 13:13',$,$,#309,#303,$,$);
#293=IFCCARTESIANPOINTLIST2D(((0.,0.),(0.,0.28000000000000003),(0.28000000000000003,0.28000000000000003),(0.28000000000000003,0.),(0.,0.)));
#294=IFCINDEXEDPOLYCURVE(#293,$,.F.);
#295=IFCDIRECTION((0.,0.,1.));
#296=IFCARBITRARYCLOSEDPROFILEDEF(.AREA.,$,#294);
#297=IFCCARTESIANPOINT((0.,0.,0.));
#298=IFCDIRECTION((0.,0.,1.));
#299=IFCDIRECTION((1.,0.,0.));
#300=IFCAXIS2PLACEMENT3D(#297,#298,#299);
#301=IFCEXTRUDEDAREASOLID(#296,#300,#295,4.);
#302=IFCSHAPEREPRESENTATION(#11,'Body','SweptSolid',(#301));
#303=IFCPRODUCTDEFINITIONSHAPE($,$,(#302));
#304=IFCSTYLEDITEM(#301,(#115),'Columns');
#305=IFCCARTESIANPOINT((13.,13.,3.6000000000000001));
#306=IFCDIRECTION((0.,0.,1.));
#307=IFCDIRECTION((1.,0.,0.));
#308=IFCAXIS2PLACEMENT3D(#305,#306,#307);
#309=IFCLOCALPLACEMENT($,#308);
#310=IFCCOLUMN('00yENuXXv40gaN7yXJ8BK2',$,'Column 23:-4',$,$,#327,#321,$,$);
#311=IFCCARTESIANPOINTLIST2D(((0.,0.),(0.,0.28000000000000003),(0.28000000000000003,0.28000000000000003),(0.28000000000000003,0.),(0.,0.)));
#312=IFCINDEXEDPOLYCURVE(#311,$,.F.);
#313=IFCDIRECTION((0.,0.,1.));
#314=IFCARBITRARYCLOSEDPROFILEDEF(.AREA.,$,#312);
#315=IFCCARTESIANPOINT((0.,0.,0.));
#316=IFCDIRECTION((0.,0.,1.));
#317=IFCDIRECTION((1.,0.,0.));
#318=IFCAXIS2PLACEMENT3D(#315,#316,#317);
#319=IFCEXTRUDEDAREASOLID(#314,#318,#313,4.);
#320=IFCSHAPEREPRESENTATION(#11,'Body','SweptSolid',(#319));
#321=IFCPRODUCTDEFINITIONSHAPE($,$,(#320));
#322=IFCSTYLEDITEM(#319,(#115),'Columns');
#323=IFCCARTESIANPOINT((23.,-4.,3.6000000000000001));
#324=IFCDIRECTION((0.,0.,1.));
#325=IFCDIRECTION((1.,0.,0.));
#326=IFCAXIS2PLACEMENT3D(#323,#324,#325);
#327=IFCLOCALPLACEMENT($,#326);
#328=IFCCOLUMN('1a1AEECIf8Gh1_mwilM7mK',$,'Column 23:4',$,$,#345,#339,$,$);
#329=IFCCARTESIANPOINTLIST2D(((0.,0.),(0.,0.28000000000000003),(0.28000000000000003,0.28000000000000003),(0.28000000000000003,0.),(0.,0.)));
#330=IFCINDEXEDPOLYCURVE(#329,$,.F.);
#331=IFCDIRECTION((0.,0.,1.));
#332=IFCARBITRARYCLOSEDPROFILEDEF(.AREA.,$,#330);
#333=IFCCARTESIANPOINT((0.,0.,0.));
#334=IFCDIRECTION((0.,0.,1.));
#335=IFCDIRECTION((1.,0.,0.));
#336=IFCAXIS2PLACEMENT3D(#333,#334,#335);
#337=IFCEXTRUDEDAREASOLID(#332,#336,#331,4.);
#338=IFCSHAPEREPRESENTATION(#11,'Body','SweptSolid',(#337));
#339=IFCPRODUCTDEFINITIONSHAPE($,$,(#338));
#340=IFCSTYLEDITEM(#337,(#115),'Columns');
#341=IFCCARTESIANPOINT((23.,4.,3.6000000000000001));
#342=IFCDIRECTION((0.,0.,1.));
#343=IFCDIRECTION((1.,0.,0.));
#344=IFCAXIS2PLACEMENT3D(#341,#342,#343);
#345=IFCLOCALPLACEMENT($,#344);
#346=IFCCOLUMN('39tRT6ofj29QHPji903jkJ',$,'Column 23:13',$,$,#363,#357,$,$);
#347=IFCCARTESIANPOINTLIST2D(((0.,0.),(0.,0.28000000000000003),(0.28000000000000003,0.28000000000000003),(0.28000000000000003,0.),(0.,0.)));
#348=IFCINDEXEDPOLYCURVE(#347,$,.F.);
#349=IFCDIRECTION((0.,0.,1.));
#350=IFCARBITRARYCLOSEDPROFILEDEF(.AREA.,$,#348);
#351=IFCCARTESIANPOINT((0.,0.,0.));
#352=IFCDIRECTION((0.,0.,1.));
#353=IFCDIRECTION((1.,0.,0.));
#354=IFCAXIS2PLACEMENT3D(#351,#352,#353);
#355=IFCEXTRUDEDAREASOLID(#350,#354,#349,4.);
#356=IFCSHAPEREPRESENTATION(#11,'Body','SweptSolid',(#355));
#357=IFCPRODUCTDEFINITIONSHAPE($,$,(#356));
#358=IFCSTYLEDITEM(#355,(#115),'Columns');
#359=IFCCARTESIANPOINT((23.,13.,3.6000000000000001));
#360=IFCDIRECTION((0.,0.,1.));
#361=IFCDIRECTION((1.,0.,0.));
#362=IFCAXIS2PLACEMENT3D(#359,#360,#361);
#363=IFCLOCALPLACEMENT($,#362);
#364=IFCWALL('2ptDTsycX41QGEJC3EQIGF',$,'Partition -4:-5',$,$,#381,#375,$,$);
#365=IFCCARTESIANPOINTLIST2D(((0.,0.),(0.,0.13),(28.,0.13),(28.,0.),(0.,0.)));
#366=IFCINDEXEDPOLYCURVE(#365,$,.F.);
#367=IFCDIRECTION((0.,0.,1.));
#368=IFCARBITRARYCLOSEDPROFILEDEF(.AREA.,$,#366);
#369=IFCCARTESIANPOINT((0.,0.,0.));
#370=IFCDIRECTION((0.,0.,1.));
#371=IFCDIRECTION((1.,0.,0.));
#372=IFCAXIS2PLACEMENT3D(#369,#370,#371);
#373=IFCEXTRUDEDAREASOLID(#368,#372,#367,1.45);
#374=IFCSHAPEREPRESENTATION(#11,'Body','SweptSolid',(#373));
#375=IFCPRODUCTDEFINITIONSHAPE($,$,(#374));
#376=IFCSTYLEDITEM(#373,(#109),'Quiet partitions');
#377=IFCCARTESIANPOINT((-4.,-5.,3.6000000000000001));
#378=IFCDIRECTION((0.,0.,1.));
#379=IFCDIRECTION((1.,0.,0.));
#380=IFCAXIS2PLACEMENT3D(#377,#378,#379);
#381=IFCLOCALPLACEMENT($,#380);
#382=IFCWALL('3_I2OtPTf0ywA2H4ZzDA2x',$,'Partition -4:14',$,$,#399,#393,$,$);
#383=IFCCARTESIANPOINTLIST2D(((0.,0.),(0.,0.13),(28.,0.13),(28.,0.),(0.,0.)));
#384=IFCINDEXEDPOLYCURVE(#383,$,.F.);
#385=IFCDIRECTION((0.,0.,1.));
#386=IFCARBITRARYCLOSEDPROFILEDEF(.AREA.,$,#384);
#387=IFCCARTESIANPOINT((0.,0.,0.));
#388=IFCDIRECTION((0.,0.,1.));
#389=IFCDIRECTION((1.,0.,0.));
#390=IFCAXIS2PLACEMENT3D(#387,#388,#389);
#391=IFCEXTRUDEDAREASOLID(#386,#390,#385,1.45);
#392=IFCSHAPEREPRESENTATION(#11,'Body','SweptSolid',(#391));
#393=IFCPRODUCTDEFINITIONSHAPE($,$,(#392));
#394=IFCSTYLEDITEM(#391,(#109),'Quiet partitions');
#395=IFCCARTESIANPOINT((-4.,14.,3.6000000000000001));
#396=IFCDIRECTION((0.,0.,1.));
#397=IFCDIRECTION((1.,0.,0.));
#398=IFCAXIS2PLACEMENT3D(#395,#396,#397);
#399=IFCLOCALPLACEMENT($,#398);
#400=IFCWALL('2oHz23zRX0FB6IxTSgsu38',$,'Partition -4:-5',$,$,#417,#411,$,$);
#401=IFCCARTESIANPOINTLIST2D(((0.,0.),(0.,0.13),(19.,0.13),(19.,0.),(0.,0.)));
#402=IFCINDEXEDPOLYCURVE(#401,$,.F.);
#403=IFCDIRECTION((0.,0.,1.));
#404=IFCARBITRARYCLOSEDPROFILEDEF(.AREA.,$,#402);
#405=IFCCARTESIANPOINT((0.,0.,0.));
#406=IFCDIRECTION((0.,0.,1.));
#407=IFCDIRECTION((1.,0.,0.));
#408=IFCAXIS2PLACEMENT3D(#405,#406,#407);
#409=IFCEXTRUDEDAREASOLID(#404,#408,#403,1.45);
#410=IFCSHAPEREPRESENTATION(#11,'Body','SweptSolid',(#409));
#411=IFCPRODUCTDEFINITIONSHAPE($,$,(#410));
#412=IFCSTYLEDITEM(#409,(#109),'Quiet partitions');
#413=IFCCARTESIANPOINT((-4.,-5.,3.6000000000000001));
#414=IFCDIRECTION((0.,0.,1.));
#415=IFCDIRECTION((0.,1.,0.));
#416=IFCAXIS2PLACEMENT3D(#413,#414,#415);
#417=IFCLOCALPLACEMENT($,#416);
#418=IFCWALL('3Noxdlaa5CyBaUsQN7Dam2',$,'Partition 24:-5',$,$,#435,#429,$,$);
#419=IFCCARTESIANPOINTLIST2D(((0.,0.),(0.,0.13),(19.,0.13),(19.,0.),(0.,0.)));
#420=IFCINDEXEDPOLYCURVE(#419,$,.F.);
#421=IFCDIRECTION((0.,0.,1.));
#422=IFCARBITRARYCLOSEDPROFILEDEF(.AREA.,$,#420);
#423=IFCCARTESIANPOINT((0.,0.,0.));
#424=IFCDIRECTION((0.,0.,1.));
#425=IFCDIRECTION((1.,0.,0.));
#426=IFCAXIS2PLACEMENT3D(#423,#424,#425);
#427=IFCEXTRUDEDAREASOLID(#422,#426,#421,1.45);
#428=IFCSHAPEREPRESENTATION(#11,'Body','SweptSolid',(#427));
#429=IFCPRODUCTDEFINITIONSHAPE($,$,(#428));
#430=IFCSTYLEDITEM(#427,(#109),'Quiet partitions');
#431=IFCCARTESIANPOINT((24.,-5.,3.6000000000000001));
#432=IFCDIRECTION((0.,0.,1.));
#433=IFCDIRECTION((0.,1.,0.));
#434=IFCAXIS2PLACEMENT3D(#431,#432,#433);
#435=IFCLOCALPLACEMENT($,#434);
#436=IFCWALL('0_ejRzd3r9Wg$pUVqVXnK8',$,'Partition 4:-4',$,$,#453,#447,$,$);
#437=IFCCARTESIANPOINTLIST2D(((0.,0.),(0.,0.13),(17.,0.13),(17.,0.),(0.,0.)));
#438=IFCINDEXEDPOLYCURVE(#437,$,.F.);
#439=IFCDIRECTION((0.,0.,1.));
#440=IFCARBITRARYCLOSEDPROFILEDEF(.AREA.,$,#438);
#441=IFCCARTESIANPOINT((0.,0.,0.));
#442=IFCDIRECTION((0.,0.,1.));
#443=IFCDIRECTION((1.,0.,0.));
#444=IFCAXIS2PLACEMENT3D(#441,#442,#443);
#445=IFCEXTRUDEDAREASOLID(#440,#444,#439,1.45);
#446=IFCSHAPEREPRESENTATION(#11,'Body','SweptSolid',(#445));
#447=IFCPRODUCTDEFINITIONSHAPE($,$,(#446));
#448=IFCSTYLEDITEM(#445,(#109),'Quiet partitions');
#449=IFCCARTESIANPOINT((4.,-4.,3.6000000000000001));
#450=IFCDIRECTION((0.,0.,1.));
#451=IFCDIRECTION((0.,1.,0.));
#452=IFCAXIS2PLACEMENT3D(#449,#450,#451);
#453=IFCLOCALPLACEMENT($,#452);
#454=IFCWALL('3AZj3t8kvAWO6VEElPtaPb',$,'Partition 13:-4',$,$,#471,#465,$,$);
#455=IFCCARTESIANPOINTLIST2D(((0.,0.),(0.,0.13),(17.,0.13),(17.,0.),(0.,0.)));
#456=IFCINDEXEDPOLYCURVE(#455,$,.F.);
#457=IFCDIRECTION((0.,0.,1.));
#458=IFCARBITRARYCLOSEDPROFILEDEF(.AREA.,$,#456);
#459=IFCCARTESIANPOINT((0.,0.,0.));
#460=IFCDIRECTION((0.,0.,1.));
#461=IFCDIRECTION((1.,0.,0.));
#462=IFCAXIS2PLACEMENT3D(#459,#460,#461);
#463=IFCEXTRUDEDAREASOLID(#458,#462,#457,1.45);
#464=IFCSHAPEREPRESENTATION(#11,'Body','SweptSolid',(#463));
#465=IFCPRODUCTDEFINITIONSHAPE($,$,(#464));
#466=IFCSTYLEDITEM(#463,(#109),'Quiet partitions');
#467=IFCCARTESIANPOINT((13.,-4.,3.6000000000000001));
#468=IFCDIRECTION((0.,0.,1.));
#469=IFCDIRECTION((0.,1.,0.));
#470=IFCAXIS2PLACEMENT3D(#467,#468,#469);
#471=IFCLOCALPLACEMENT($,#470);
#472=IFCWALL('2I2XZMQgHB_wkC2wfA4U51',$,'Partition -3:4',$,$,#489,#483,$,$);
#473=IFCCARTESIANPOINTLIST2D(((0.,0.),(0.,0.13),(26.,0.13),(26.,0.),(0.,0.)));
#474=IFCINDEXEDPOLYCURVE(#473,$,.F.);
#475=IFCDIRECTION((0.,0.,1.));
#476=IFCARBITRARYCLOSEDPROFILEDEF(.AREA.,$,#474);
#477=IFCCARTESIANPOINT((0.,0.,0.));
#478=IFCDIRECTION((0.,0.,1.));
#479=IFCDIRECTION((1.,0.,0.));
#480=IFCAXIS2PLACEMENT3D(#477,#478,#479);
#481=IFCEXTRUDEDAREASOLID(#476,#480,#475,1.45);
#482=IFCSHAPEREPRESENTATION(#11,'Body','SweptSolid',(#481));
#483=IFCPRODUCTDEFINITIONSHAPE($,$,(#482));
#484=IFCSTYLEDITEM(#481,(#109),'Quiet partitions');
#485=IFCCARTESIANPOINT((-3.,4.,3.6000000000000001));
#486=IFCDIRECTION((0.,0.,1.));
#487=IFCDIRECTION((1.,0.,0.));
#488=IFCAXIS2PLACEMENT3D(#485,#486,#487);
#489=IFCLOCALPLACEMENT($,#488);
#490=IFCBEAM('1Mj0I7jyfAZgVf7oMA7Ab_',$,'Overhead beam -3:0',$,$,#507,#501,$,$);
#491=IFCCARTESIANPOINTLIST2D(((0.,0.),(0.,0.23999999999999999),(9.,0.23999999999999999),(9.,0.),(0.,0.)));
#492=IFCINDEXEDPOLYCURVE(#491,$,.F.);
#493=IFCDIRECTION((0.,0.,1.));
#494=IFCARBITRARYCLOSEDPROFILEDEF(.AREA.,$,#492);
#495=IFCCARTESIANPOINT((0.,0.,0.));
#496=IFCDIRECTION((0.,0.,1.));
#497=IFCDIRECTION((1.,0.,0.));
#498=IFCAXIS2PLACEMENT3D(#495,#496,#497);
#499=IFCEXTRUDEDAREASOLID(#494,#498,#493,0.26000000000000001);
#500=IFCSHAPEREPRESENTATION(#11,'Body','SweptSolid',(#499));
#501=IFCPRODUCTDEFINITIONSHAPE($,$,(#500));
#502=IFCSTYLEDITEM(#499,(#112),'Steel beams');
#503=IFCCARTESIANPOINT((-3.,0.,7.2999999999999998));
#504=IFCDIRECTION((0.,0.,1.));
#505=IFCDIRECTION((1.,0.,0.));
#506=IFCAXIS2PLACEMENT3D(#503,#504,#505);
#507=IFCLOCALPLACEMENT($,#506);
#508=IFCBEAM('2In19dAVvBEgdzjfL2dv2a',$,'Overhead beam 4:0',$,$,#525,#519,$,$);
#509=IFCCARTESIANPOINTLIST2D(((0.,0.),(0.,0.23999999999999999),(9.,0.23999999999999999),(9.,0.),(0.,0.)));
#510=IFCINDEXEDPOLYCURVE(#509,$,.F.);
#511=IFCDIRECTION((0.,0.,1.));
#512=IFCARBITRARYCLOSEDPROFILEDEF(.AREA.,$,#510);
#513=IFCCARTESIANPOINT((0.,0.,0.));
#514=IFCDIRECTION((0.,0.,1.));
#515=IFCDIRECTION((1.,0.,0.));
#516=IFCAXIS2PLACEMENT3D(#513,#514,#515);
#517=IFCEXTRUDEDAREASOLID(#512,#516,#511,0.26000000000000001);
#518=IFCSHAPEREPRESENTATION(#11,'Body','SweptSolid',(#517));
#519=IFCPRODUCTDEFINITIONSHAPE($,$,(#518));
#520=IFCSTYLEDITEM(#517,(#112),'Steel beams');
#521=IFCCARTESIANPOINT((4.,0.,7.2999999999999998));
#522=IFCDIRECTION((0.,0.,1.));
#523=IFCDIRECTION((1.,0.,0.));
#524=IFCAXIS2PLACEMENT3D(#521,#522,#523);
#525=IFCLOCALPLACEMENT($,#524);
#526=IFCBEAM('0sqtLNi9PABhsFdCV0IdiI',$,'Overhead beam 13:0',$,$,#543,#537,$,$);
#527=IFCCARTESIANPOINTLIST2D(((0.,0.),(0.,0.23999999999999999),(9.,0.23999999999999999),(9.,0.),(0.,0.)));
#528=IFCINDEXEDPOLYCURVE(#527,$,.F.);
#529=IFCDIRECTION((0.,0.,1.));
#530=IFCARBITRARYCLOSEDPROFILEDEF(.AREA.,$,#528);
#531=IFCCARTESIANPOINT((0.,0.,0.));
#532=IFCDIRECTION((0.,0.,1.));
#533=IFCDIRECTION((1.,0.,0.));
#534=IFCAXIS2PLACEMENT3D(#531,#532,#533);
#535=IFCEXTRUDEDAREASOLID(#530,#534,#529,0.26000000000000001);
#536=IFCSHAPEREPRESENTATION(#11,'Body','SweptSolid',(#535));
#537=IFCPRODUCTDEFINITIONSHAPE($,$,(#536));
#538=IFCSTYLEDITEM(#535,(#112),'Steel beams');
#539=IFCCARTESIANPOINT((13.,0.,7.2999999999999998));
#540=IFCDIRECTION((0.,0.,1.));
#541=IFCDIRECTION((1.,0.,0.));
#542=IFCAXIS2PLACEMENT3D(#539,#540,#541);
#543=IFCLOCALPLACEMENT($,#542);
#544=IFCBEAM('2XHYfhq9v3DekONDdTOOtv',$,'Overhead beam -3:7',$,$,#561,#555,$,$);
#545=IFCCARTESIANPOINTLIST2D(((0.,0.),(0.,0.23999999999999999),(9.,0.23999999999999999),(9.,0.),(0.,0.)));
#546=IFCINDEXEDPOLYCURVE(#545,$,.F.);
#547=IFCDIRECTION((0.,0.,1.));
#548=IFCARBITRARYCLOSEDPROFILEDEF(.AREA.,$,#546);
#549=IFCCARTESIANPOINT((0.,0.,0.));
#550=IFCDIRECTION((0.,0.,1.));
#551=IFCDIRECTION((1.,0.,0.));
#552=IFCAXIS2PLACEMENT3D(#549,#550,#551);
#553=IFCEXTRUDEDAREASOLID(#548,#552,#547,0.26000000000000001);
#554=IFCSHAPEREPRESENTATION(#11,'Body','SweptSolid',(#553));
#555=IFCPRODUCTDEFINITIONSHAPE($,$,(#554));
#556=IFCSTYLEDITEM(#553,(#112),'Steel beams');
#557=IFCCARTESIANPOINT((-3.,7.,7.2999999999999998));
#558=IFCDIRECTION((0.,0.,1.));
#559=IFCDIRECTION((1.,0.,0.));
#560=IFCAXIS2PLACEMENT3D(#557,#558,#559);
#561=IFCLOCALPLACEMENT($,#560);
#562=IFCBEAM('0ivzWgl$b8ke3XJ$30aHUe',$,'Overhead beam 4:7',$,$,#579,#573,$,$);
#563=IFCCARTESIANPOINTLIST2D(((0.,0.),(0.,0.23999999999999999),(9.,0.23999999999999999),(9.,0.),(0.,0.)));
#564=IFCINDEXEDPOLYCURVE(#563,$,.F.);
#565=IFCDIRECTION((0.,0.,1.));
#566=IFCARBITRARYCLOSEDPROFILEDEF(.AREA.,$,#564);
#567=IFCCARTESIANPOINT((0.,0.,0.));
#568=IFCDIRECTION((0.,0.,1.));
#569=IFCDIRECTION((1.,0.,0.));
#570=IFCAXIS2PLACEMENT3D(#567,#568,#569);
#571=IFCEXTRUDEDAREASOLID(#566,#570,#565,0.26000000000000001);
#572=IFCSHAPEREPRESENTATION(#11,'Body','SweptSolid',(#571));
#573=IFCPRODUCTDEFINITIONSHAPE($,$,(#572));
#574=IFCSTYLEDITEM(#571,(#112),'Steel beams');
#575=IFCCARTESIANPOINT((4.,7.,7.2999999999999998));
#576=IFCDIRECTION((0.,0.,1.));
#577=IFCDIRECTION((1.,0.,0.));
#578=IFCAXIS2PLACEMENT3D(#575,#576,#577);
#579=IFCLOCALPLACEMENT($,#578);
#580=IFCBEAM('1r6kDPZ516i8$NAChl$WRa',$,'Overhead beam 13:7',$,$,#597,#591,$,$);
#581=IFCCARTESIANPOINTLIST2D(((0.,0.),(0.,0.23999999999999999),(9.,0.23999999999999999),(9.,0.),(0.,0.)));
#582=IFCINDEXEDPOLYCURVE(#581,$,.F.);
#583=IFCDIRECTION((0.,0.,1.));
#584=IFCARBITRARYCLOSEDPROFILEDEF(.AREA.,$,#582);
#585=IFCCARTESIANPOINT((0.,0.,0.));
#586=IFCDIRECTION((0.,0.,1.));
#587=IFCDIRECTION((1.,0.,0.));
#588=IFCAXIS2PLACEMENT3D(#585,#586,#587);
#589=IFCEXTRUDEDAREASOLID(#584,#588,#583,0.26000000000000001);
#590=IFCSHAPEREPRESENTATION(#11,'Body','SweptSolid',(#589));
#591=IFCPRODUCTDEFINITIONSHAPE($,$,(#590));
#592=IFCSTYLEDITEM(#589,(#112),'Steel beams');
#593=IFCCARTESIANPOINT((13.,7.,7.2999999999999998));
#594=IFCDIRECTION((0.,0.,1.));
#595=IFCDIRECTION((1.,0.,0.));
#596=IFCAXIS2PLACEMENT3D(#593,#594,#595);
#597=IFCLOCALPLACEMENT($,#596);
#598=IFCBEAM('0xIdElSMDERf_2xjl9tQGc',$,'Overhead beam -3:12',$,$,#615,#609,$,$);
#599=IFCCARTESIANPOINTLIST2D(((0.,0.),(0.,0.23999999999999999),(9.,0.23999999999999999),(9.,0.),(0.,0.)));
#600=IFCINDEXEDPOLYCURVE(#599,$,.F.);
#601=IFCDIRECTION((0.,0.,1.));
#602=IFCARBITRARYCLOSEDPROFILEDEF(.AREA.,$,#600);
#603=IFCCARTESIANPOINT((0.,0.,0.));
#604=IFCDIRECTION((0.,0.,1.));
#605=IFCDIRECTION((1.,0.,0.));
#606=IFCAXIS2PLACEMENT3D(#603,#604,#605);
#607=IFCEXTRUDEDAREASOLID(#602,#606,#601,0.26000000000000001);
#608=IFCSHAPEREPRESENTATION(#11,'Body','SweptSolid',(#607));
#609=IFCPRODUCTDEFINITIONSHAPE($,$,(#608));
#610=IFCSTYLEDITEM(#607,(#112),'Steel beams');
#611=IFCCARTESIANPOINT((-3.,12.,7.2999999999999998));
#612=IFCDIRECTION((0.,0.,1.));
#613=IFCDIRECTION((1.,0.,0.));
#614=IFCAXIS2PLACEMENT3D(#611,#612,#613);
#615=IFCLOCALPLACEMENT($,#614);
#616=IFCBEAM('05_NW66ovC5h7cuQ77jRUB',$,'Overhead beam 4:12',$,$,#633,#627,$,$);
#617=IFCCARTESIANPOINTLIST2D(((0.,0.),(0.,0.23999999999999999),(9.,0.23999999999999999),(9.,0.),(0.,0.)));
#618=IFCINDEXEDPOLYCURVE(#617,$,.F.);
#619=IFCDIRECTION((0.,0.,1.));
#620=IFCARBITRARYCLOSEDPROFILEDEF(.AREA.,$,#618);
#621=IFCCARTESIANPOINT((0.,0.,0.));
#622=IFCDIRECTION((0.,0.,1.));
#623=IFCDIRECTION((1.,0.,0.));
#624=IFCAXIS2PLACEMENT3D(#621,#622,#623);
#625=IFCEXTRUDEDAREASOLID(#620,#624,#619,0.26000000000000001);
#626=IFCSHAPEREPRESENTATION(#11,'Body','SweptSolid',(#625));
#627=IFCPRODUCTDEFINITIONSHAPE($,$,(#626));
#628=IFCSTYLEDITEM(#625,(#112),'Steel beams');
#629=IFCCARTESIANPOINT((4.,12.,7.2999999999999998));
#630=IFCDIRECTION((0.,0.,1.));
#631=IFCDIRECTION((1.,0.,0.));
#632=IFCAXIS2PLACEMENT3D(#629,#630,#631);
#633=IFCLOCALPLACEMENT($,#632);
#634=IFCBEAM('14PcCJg6zBwBskRzSvzYN5',$,'Overhead beam 13:12',$,$,#651,#645,$,$);
#635=IFCCARTESIANPOINTLIST2D(((0.,0.),(0.,0.23999999999999999),(9.,0.23999999999999999),(9.,0.),(0.,0.)));
#636=IFCINDEXEDPOLYCURVE(#635,$,.F.);
#637=IFCDIRECTION((0.,0.,1.));
#638=IFCARBITRARYCLOSEDPROFILEDEF(.AREA.,$,#636);
#639=IFCCARTESIANPOINT((0.,0.,0.));
#640=IFCDIRECTION((0.,0.,1.));
#641=IFCDIRECTION((1.,0.,0.));
#642=IFCAXIS2PLACEMENT3D(#639,#640,#641);
#643=IFCEXTRUDEDAREASOLID(#638,#642,#637,0.26000000000000001);
#644=IFCSHAPEREPRESENTATION(#11,'Body','SweptSolid',(#643));
#645=IFCPRODUCTDEFINITIONSHAPE($,$,(#644));
#646=IFCSTYLEDITEM(#643,(#112),'Steel beams');
#647=IFCCARTESIANPOINT((13.,12.,7.2999999999999998));
#648=IFCDIRECTION((0.,0.,1.));
#649=IFCDIRECTION((1.,0.,0.));
#650=IFCAXIS2PLACEMENT3D(#647,#648,#649);
#651=IFCLOCALPLACEMENT($,#650);
#652=IFCUNITARYEQUIPMENT('3Dp2b2_P55XvdpfAOJofi4',$,'AHU-01',$,$,#669,#663,$,$);
#653=IFCCARTESIANPOINTLIST2D(((0.,0.),(0.,2.3999999999999999),(5.2000000000000002,2.3999999999999999),(5.2000000000000002,0.),(0.,0.)));
#654=IFCINDEXEDPOLYCURVE(#653,$,.F.);
#655=IFCDIRECTION((0.,0.,1.));
#656=IFCARBITRARYCLOSEDPROFILEDEF(.AREA.,$,#654);
#657=IFCCARTESIANPOINT((0.,0.,0.));
#658=IFCDIRECTION((0.,0.,1.));
#659=IFCDIRECTION((1.,0.,0.));
#660=IFCAXIS2PLACEMENT3D(#657,#658,#659);
#661=IFCEXTRUDEDAREASOLID(#656,#660,#655,1.8);
#662=IFCSHAPEREPRESENTATION(#11,'Body','SweptSolid',(#661));
#663=IFCPRODUCTDEFINITIONSHAPE($,$,(#662));
#664=IFCSTYLEDITEM(#661,(#118),'Mechanical equipment');
#665=IFCCARTESIANPOINT((7.,5.,4.7999999999999998));
#666=IFCDIRECTION((0.,0.,1.));
#667=IFCDIRECTION((1.,0.,0.));
#668=IFCAXIS2PLACEMENT3D(#665,#666,#667);
#669=IFCLOCALPLACEMENT($,#668);
#670=IFCUNITARYEQUIPMENT('2aCznniXn2$BckcWrPQn$d',$,'AHU-02',$,$,#687,#681,$,$);
#671=IFCCARTESIANPOINTLIST2D(((0.,0.),(0.,1.8),(3.6000000000000001,1.8),(3.6000000000000001,0.),(0.,0.)));
#672=IFCINDEXEDPOLYCURVE(#671,$,.F.);
#673=IFCDIRECTION((0.,0.,1.));
#674=IFCARBITRARYCLOSEDPROFILEDEF(.AREA.,$,#672);
#675=IFCCARTESIANPOINT((0.,0.,0.));
#676=IFCDIRECTION((0.,0.,1.));
#677=IFCDIRECTION((1.,0.,0.));
#678=IFCAXIS2PLACEMENT3D(#675,#676,#677);
#679=IFCEXTRUDEDAREASOLID(#674,#678,#673,1.3999999999999999);
#680=IFCSHAPEREPRESENTATION(#11,'Body','SweptSolid',(#679));
#681=IFCPRODUCTDEFINITIONSHAPE($,$,(#680));
#682=IFCSTYLEDITEM(#679,(#118),'Mechanical equipment');
#683=IFCCARTESIANPOINT((16.,5.5,4.7999999999999998));
#684=IFCDIRECTION((0.,0.,1.));
#685=IFCDIRECTION((1.,0.,0.));
#686=IFCAXIS2PLACEMENT3D(#683,#684,#685);
#687=IFCLOCALPLACEMENT($,#686);
#688=IFCDUCTSEGMENT('3i_M0GCWb7oRbnS90bVKRX',$,'Supply duct 00',$,$,#705,#699,$,$);
#689=IFCCARTESIANPOINTLIST2D(((0.,0.),(0.,0.69999999999999996),(24.,0.69999999999999996),(24.,0.),(0.,0.)));
#690=IFCINDEXEDPOLYCURVE(#689,$,.F.);
#691=IFCDIRECTION((0.,0.,1.));
#692=IFCARBITRARYCLOSEDPROFILEDEF(.AREA.,$,#690);
#693=IFCCARTESIANPOINT((0.,0.,0.));
#694=IFCDIRECTION((0.,0.,1.));
#695=IFCDIRECTION((1.,0.,0.));
#696=IFCAXIS2PLACEMENT3D(#693,#694,#695);
#697=IFCEXTRUDEDAREASOLID(#692,#696,#691,0.55000000000000004);
#698=IFCSHAPEREPRESENTATION(#11,'Body','SweptSolid',(#697));
#699=IFCPRODUCTDEFINITIONSHAPE($,$,(#698));
#700=IFCSTYLEDITEM(#697,(#121),'Galvanized ducts');
#701=IFCCARTESIANPOINT((-3.,1.,6.0999999999999996));
#702=IFCDIRECTION((0.,0.,1.));
#703=IFCDIRECTION((1.,0.,0.));
#704=IFCAXIS2PLACEMENT3D(#701,#702,#703);
#705=IFCLOCALPLACEMENT($,#704);
#706=IFCDUCTSEGMENT('0XZAnvXBT5p8TPlRjUuk_$',$,'Duct branch 00-00',$,$,#723,#717,$,$);
#707=IFCCARTESIANPOINTLIST2D(((0.,0.),(0.,0.40000000000000002),(4.2000000000000002,0.40000000000000002),(4.2000000000000002,0.),(0.,0.)));
#708=IFCINDEXEDPOLYCURVE(#707,$,.F.);
#709=IFCDIRECTION((0.,0.,1.));
#710=IFCARBITRARYCLOSEDPROFILEDEF(.AREA.,$,#708);
#711=IFCCARTESIANPOINT((0.,0.,0.));
#712=IFCDIRECTION((0.,0.,1.));
#713=IFCDIRECTION((1.,0.,0.));
#714=IFCAXIS2PLACEMENT3D(#711,#712,#713);
#715=IFCEXTRUDEDAREASOLID(#710,#714,#709,0.38);
#716=IFCSHAPEREPRESENTATION(#11,'Body','SweptSolid',(#715));
#717=IFCPRODUCTDEFINITIONSHAPE($,$,(#716));
#718=IFCSTYLEDITEM(#715,(#121),'Galvanized ducts');
#719=IFCCARTESIANPOINT((0.,1.,6.0999999999999996));
#720=IFCDIRECTION((0.,0.,1.));
#721=IFCDIRECTION((0.,1.,0.));
#722=IFCAXIS2PLACEMENT3D(#719,#720,#721);
#723=IFCLOCALPLACEMENT($,#722);
#724=IFCDUCTSEGMENT('2PjhD61RHCPBoLu5OFYisx',$,'Duct branch 00-01',$,$,#741,#735,$,$);
#725=IFCCARTESIANPOINTLIST2D(((0.,0.),(0.,0.40000000000000002),(4.2000000000000002,0.40000000000000002),(4.2000000000000002,0.),(0.,0.)));
#726=IFCINDEXEDPOLYCURVE(#725,$,.F.);
#727=IFCDIRECTION((0.,0.,1.));
#728=IFCARBITRARYCLOSEDPROFILEDEF(.AREA.,$,#726);
#729=IFCCARTESIANPOINT((0.,0.,0.));
#730=IFCDIRECTION((0.,0.,1.));
#731=IFCDIRECTION((1.,0.,0.));
#732=IFCAXIS2PLACEMENT3D(#729,#730,#731);
#733=IFCEXTRUDEDAREASOLID(#728,#732,#727,0.38);
#734=IFCSHAPEREPRESENTATION(#11,'Body','SweptSolid',(#733));
#735=IFCPRODUCTDEFINITIONSHAPE($,$,(#734));
#736=IFCSTYLEDITEM(#733,(#121),'Galvanized ducts');
#737=IFCCARTESIANPOINT((5.,1.,6.0999999999999996));
#738=IFCDIRECTION((0.,0.,1.));
#739=IFCDIRECTION((0.,1.,0.));
#740=IFCAXIS2PLACEMENT3D(#737,#738,#739);
#741=IFCLOCALPLACEMENT($,#740);
#742=IFCDUCTSEGMENT('0pTobj2kj0QQN0bhHb$lZj',$,'Duct branch 00-02',$,$,#759,#753,$,$);
#743=IFCCARTESIANPOINTLIST2D(((0.,0.),(0.,0.40000000000000002),(4.2000000000000002,0.40000000000000002),(4.2000000000000002,0.),(0.,0.)));
#744=IFCINDEXEDPOLYCURVE(#743,$,.F.);
#745=IFCDIRECTION((0.,0.,1.));
#746=IFCARBITRARYCLOSEDPROFILEDEF(.AREA.,$,#744);
#747=IFCCARTESIANPOINT((0.,0.,0.));
#748=IFCDIRECTION((0.,0.,1.));
#749=IFCDIRECTION((1.,0.,0.));
#750=IFCAXIS2PLACEMENT3D(#747,#748,#749);
#751=IFCEXTRUDEDAREASOLID(#746,#750,#745,0.38);
#752=IFCSHAPEREPRESENTATION(#11,'Body','SweptSolid',(#751));
#753=IFCPRODUCTDEFINITIONSHAPE($,$,(#752));
#754=IFCSTYLEDITEM(#751,(#121),'Galvanized ducts');
#755=IFCCARTESIANPOINT((14.,1.,6.0999999999999996));
#756=IFCDIRECTION((0.,0.,1.));
#757=IFCDIRECTION((0.,1.,0.));
#758=IFCAXIS2PLACEMENT3D(#755,#756,#757);
#759=IFCLOCALPLACEMENT($,#758);
#760=IFCDUCTSEGMENT('0RASQTTqT6yPvkHZVAGn97',$,'Duct branch 00-03',$,$,#777,#771,$,$);
#761=IFCCARTESIANPOINTLIST2D(((0.,0.),(0.,0.40000000000000002),(4.2000000000000002,0.40000000000000002),(4.2000000000000002,0.),(0.,0.)));
#762=IFCINDEXEDPOLYCURVE(#761,$,.F.);
#763=IFCDIRECTION((0.,0.,1.));
#764=IFCARBITRARYCLOSEDPROFILEDEF(.AREA.,$,#762);
#765=IFCCARTESIANPOINT((0.,0.,0.));
#766=IFCDIRECTION((0.,0.,1.));
#767=IFCDIRECTION((1.,0.,0.));
#768=IFCAXIS2PLACEMENT3D(#765,#766,#767);
#769=IFCEXTRUDEDAREASOLID(#764,#768,#763,0.38);
#770=IFCSHAPEREPRESENTATION(#11,'Body','SweptSolid',(#769));
#771=IFCPRODUCTDEFINITIONSHAPE($,$,(#770));
#772=IFCSTYLEDITEM(#769,(#121),'Galvanized ducts');
#773=IFCCARTESIANPOINT((20.,1.,6.0999999999999996));
#774=IFCDIRECTION((0.,0.,1.));
#775=IFCDIRECTION((0.,1.,0.));
#776=IFCAXIS2PLACEMENT3D(#773,#774,#775);
#777=IFCLOCALPLACEMENT($,#776);
#778=IFCDUCTSEGMENT('3Uu9SrUDvAw96ypC_mjI$X',$,'Supply duct 01',$,$,#795,#789,$,$);
#779=IFCCARTESIANPOINTLIST2D(((0.,0.),(0.,0.69999999999999996),(24.,0.69999999999999996),(24.,0.),(0.,0.)));
#780=IFCINDEXEDPOLYCURVE(#779,$,.F.);
#781=IFCDIRECTION((0.,0.,1.));
#782=IFCARBITRARYCLOSEDPROFILEDEF(.AREA.,$,#780);
#783=IFCCARTESIANPOINT((0.,0.,0.));
#784=IFCDIRECTION((0.,0.,1.));
#785=IFCDIRECTION((1.,0.,0.));
#786=IFCAXIS2PLACEMENT3D(#783,#784,#785);
#787=IFCEXTRUDEDAREASOLID(#782,#786,#781,0.55000000000000004);
#788=IFCSHAPEREPRESENTATION(#11,'Body','SweptSolid',(#787));
#789=IFCPRODUCTDEFINITIONSHAPE($,$,(#788));
#790=IFCSTYLEDITEM(#787,(#121),'Galvanized ducts');
#791=IFCCARTESIANPOINT((-3.,3.,6.0999999999999996));
#792=IFCDIRECTION((0.,0.,1.));
#793=IFCDIRECTION((1.,0.,0.));
#794=IFCAXIS2PLACEMENT3D(#791,#792,#793);
#795=IFCLOCALPLACEMENT($,#794);
#796=IFCDUCTSEGMENT('3R3XWiev90JAPDytKC74G3',$,'Duct branch 01-00',$,$,#813,#807,$,$);
#797=IFCCARTESIANPOINTLIST2D(((0.,0.),(0.,0.40000000000000002),(4.2000000000000002,0.40000000000000002),(4.2000000000000002,0.),(0.,0.)));
#798=IFCINDEXEDPOLYCURVE(#797,$,.F.);
#799=IFCDIRECTION((0.,0.,1.));
#800=IFCARBITRARYCLOSEDPROFILEDEF(.AREA.,$,#798);
#801=IFCCARTESIANPOINT((0.,0.,0.));
#802=IFCDIRECTION((0.,0.,1.));
#803=IFCDIRECTION((1.,0.,0.));
#804=IFCAXIS2PLACEMENT3D(#801,#802,#803);
#805=IFCEXTRUDEDAREASOLID(#800,#804,#799,0.38);
#806=IFCSHAPEREPRESENTATION(#11,'Body','SweptSolid',(#805));
#807=IFCPRODUCTDEFINITIONSHAPE($,$,(#806));
#808=IFCSTYLEDITEM(#805,(#121),'Galvanized ducts');
#809=IFCCARTESIANPOINT((0.,3.,6.0999999999999996));
#810=IFCDIRECTION((0.,0.,1.));
#811=IFCDIRECTION((0.,1.,0.));
#812=IFCAXIS2PLACEMENT3D(#809,#810,#811);
#813=IFCLOCALPLACEMENT($,#812);
#814=IFCDUCTSEGMENT('166_rcsgnFTAzqk8La80xD',$,'Duct branch 01-01',$,$,#831,#825,$,$);
#815=IFCCARTESIANPOINTLIST2D(((0.,0.),(0.,0.40000000000000002),(4.2000000000000002,0.40000000000000002),(4.2000000000000002,0.),(0.,0.)));
#816=IFCINDEXEDPOLYCURVE(#815,$,.F.);
#817=IFCDIRECTION((0.,0.,1.));
#818=IFCARBITRARYCLOSEDPROFILEDEF(.AREA.,$,#816);
#819=IFCCARTESIANPOINT((0.,0.,0.));
#820=IFCDIRECTION((0.,0.,1.));
#821=IFCDIRECTION((1.,0.,0.));
#822=IFCAXIS2PLACEMENT3D(#819,#820,#821);
#823=IFCEXTRUDEDAREASOLID(#818,#822,#817,0.38);
#824=IFCSHAPEREPRESENTATION(#11,'Body','SweptSolid',(#823));
#825=IFCPRODUCTDEFINITIONSHAPE($,$,(#824));
#826=IFCSTYLEDITEM(#823,(#121),'Galvanized ducts');
#827=IFCCARTESIANPOINT((5.,3.,6.0999999999999996));
#828=IFCDIRECTION((0.,0.,1.));
#829=IFCDIRECTION((0.,1.,0.));
#830=IFCAXIS2PLACEMENT3D(#827,#828,#829);
#831=IFCLOCALPLACEMENT($,#830);
#832=IFCDUCTSEGMENT('3j6Io4cDLF0vla_HaLAebl',$,'Duct branch 01-02',$,$,#849,#843,$,$);
#833=IFCCARTESIANPOINTLIST2D(((0.,0.),(0.,0.40000000000000002),(4.2000000000000002,0.40000000000000002),(4.2000000000000002,0.),(0.,0.)));
#834=IFCINDEXEDPOLYCURVE(#833,$,.F.);
#835=IFCDIRECTION((0.,0.,1.));
#836=IFCARBITRARYCLOSEDPROFILEDEF(.AREA.,$,#834);
#837=IFCCARTESIANPOINT((0.,0.,0.));
#838=IFCDIRECTION((0.,0.,1.));
#839=IFCDIRECTION((1.,0.,0.));
#840=IFCAXIS2PLACEMENT3D(#837,#838,#839);
#841=IFCEXTRUDEDAREASOLID(#836,#840,#835,0.38);
#842=IFCSHAPEREPRESENTATION(#11,'Body','SweptSolid',(#841));
#843=IFCPRODUCTDEFINITIONSHAPE($,$,(#842));
#844=IFCSTYLEDITEM(#841,(#121),'Galvanized ducts');
#845=IFCCARTESIANPOINT((14.,3.,6.0999999999999996));
#846=IFCDIRECTION((0.,0.,1.));
#847=IFCDIRECTION((0.,1.,0.));
#848=IFCAXIS2PLACEMENT3D(#845,#846,#847);
#849=IFCLOCALPLACEMENT($,#848);
#850=IFCDUCTSEGMENT('0B9P96gCP6dPOCOB68trPh',$,'Duct branch 01-03',$,$,#867,#861,$,$);
#851=IFCCARTESIANPOINTLIST2D(((0.,0.),(0.,0.40000000000000002),(4.2000000000000002,0.40000000000000002),(4.2000000000000002,0.),(0.,0.)));
#852=IFCINDEXEDPOLYCURVE(#851,$,.F.);
#853=IFCDIRECTION((0.,0.,1.));
#854=IFCARBITRARYCLOSEDPROFILEDEF(.AREA.,$,#852);
#855=IFCCARTESIANPOINT((0.,0.,0.));
#856=IFCDIRECTION((0.,0.,1.));
#857=IFCDIRECTION((1.,0.,0.));
#858=IFCAXIS2PLACEMENT3D(#855,#856,#857);
#859=IFCEXTRUDEDAREASOLID(#854,#858,#853,0.38);
#860=IFCSHAPEREPRESENTATION(#11,'Body','SweptSolid',(#859));
#861=IFCPRODUCTDEFINITIONSHAPE($,$,(#860));
#862=IFCSTYLEDITEM(#859,(#121),'Galvanized ducts');
#863=IFCCARTESIANPOINT((20.,3.,6.0999999999999996));
#864=IFCDIRECTION((0.,0.,1.));
#865=IFCDIRECTION((0.,1.,0.));
#866=IFCAXIS2PLACEMENT3D(#863,#864,#865);
#867=IFCLOCALPLACEMENT($,#866);
#868=IFCDUCTSEGMENT('0jnHSbytrFpQO6E2eAdiK5',$,'Supply duct 02',$,$,#885,#879,$,$);
#869=IFCCARTESIANPOINTLIST2D(((0.,0.),(0.,0.69999999999999996),(24.,0.69999999999999996),(24.,0.),(0.,0.)));
#870=IFCINDEXEDPOLYCURVE(#869,$,.F.);
#871=IFCDIRECTION((0.,0.,1.));
#872=IFCARBITRARYCLOSEDPROFILEDEF(.AREA.,$,#870);
#873=IFCCARTESIANPOINT((0.,0.,0.));
#874=IFCDIRECTION((0.,0.,1.));
#875=IFCDIRECTION((1.,0.,0.));
#876=IFCAXIS2PLACEMENT3D(#873,#874,#875);
#877=IFCEXTRUDEDAREASOLID(#872,#876,#871,0.55000000000000004);
#878=IFCSHAPEREPRESENTATION(#11,'Body','SweptSolid',(#877));
#879=IFCPRODUCTDEFINITIONSHAPE($,$,(#878));
#880=IFCSTYLEDITEM(#877,(#121),'Galvanized ducts');
#881=IFCCARTESIANPOINT((-3.,9.,6.0999999999999996));
#882=IFCDIRECTION((0.,0.,1.));
#883=IFCDIRECTION((1.,0.,0.));
#884=IFCAXIS2PLACEMENT3D(#881,#882,#883);
#885=IFCLOCALPLACEMENT($,#884);
#886=IFCDUCTSEGMENT('0XiHSv4DfBEexL_vWcQ7V$',$,'Duct branch 02-00',$,$,#903,#897,$,$);
#887=IFCCARTESIANPOINTLIST2D(((0.,0.),(0.,0.40000000000000002),(4.2000000000000002,0.40000000000000002),(4.2000000000000002,0.),(0.,0.)));
#888=IFCINDEXEDPOLYCURVE(#887,$,.F.);
#889=IFCDIRECTION((0.,0.,1.));
#890=IFCARBITRARYCLOSEDPROFILEDEF(.AREA.,$,#888);
#891=IFCCARTESIANPOINT((0.,0.,0.));
#892=IFCDIRECTION((0.,0.,1.));
#893=IFCDIRECTION((1.,0.,0.));
#894=IFCAXIS2PLACEMENT3D(#891,#892,#893);
#895=IFCEXTRUDEDAREASOLID(#890,#894,#889,0.38);
#896=IFCSHAPEREPRESENTATION(#11,'Body','SweptSolid',(#895));
#897=IFCPRODUCTDEFINITIONSHAPE($,$,(#896));
#898=IFCSTYLEDITEM(#895,(#121),'Galvanized ducts');
#899=IFCCARTESIANPOINT((0.,9.,6.0999999999999996));
#900=IFCDIRECTION((0.,0.,1.));
#901=IFCDIRECTION((0.,1.,0.));
#902=IFCAXIS2PLACEMENT3D(#899,#900,#901);
#903=IFCLOCALPLACEMENT($,#902);
#904=IFCDUCTSEGMENT('1RsafdF$n1JfjJ0fpxJFpk',$,'Duct branch 02-01',$,$,#921,#915,$,$);
#905=IFCCARTESIANPOINTLIST2D(((0.,0.),(0.,0.40000000000000002),(4.2000000000000002,0.40000000000000002),(4.2000000000000002,0.),(0.,0.)));
#906=IFCINDEXEDPOLYCURVE(#905,$,.F.);
#907=IFCDIRECTION((0.,0.,1.));
#908=IFCARBITRARYCLOSEDPROFILEDEF(.AREA.,$,#906);
#909=IFCCARTESIANPOINT((0.,0.,0.));
#910=IFCDIRECTION((0.,0.,1.));
#911=IFCDIRECTION((1.,0.,0.));
#912=IFCAXIS2PLACEMENT3D(#909,#910,#911);
#913=IFCEXTRUDEDAREASOLID(#908,#912,#907,0.38);
#914=IFCSHAPEREPRESENTATION(#11,'Body','SweptSolid',(#913));
#915=IFCPRODUCTDEFINITIONSHAPE($,$,(#914));
#916=IFCSTYLEDITEM(#913,(#121),'Galvanized ducts');
#917=IFCCARTESIANPOINT((5.,9.,6.0999999999999996));
#918=IFCDIRECTION((0.,0.,1.));
#919=IFCDIRECTION((0.,1.,0.));
#920=IFCAXIS2PLACEMENT3D(#917,#918,#919);
#921=IFCLOCALPLACEMENT($,#920);
#922=IFCDUCTSEGMENT('0CxsS_nYP9IRF6F_qDROXa',$,'Duct branch 02-02',$,$,#939,#933,$,$);
#923=IFCCARTESIANPOINTLIST2D(((0.,0.),(0.,0.40000000000000002),(4.2000000000000002,0.40000000000000002),(4.2000000000000002,0.),(0.,0.)));
#924=IFCINDEXEDPOLYCURVE(#923,$,.F.);
#925=IFCDIRECTION((0.,0.,1.));
#926=IFCARBITRARYCLOSEDPROFILEDEF(.AREA.,$,#924);
#927=IFCCARTESIANPOINT((0.,0.,0.));
#928=IFCDIRECTION((0.,0.,1.));
#929=IFCDIRECTION((1.,0.,0.));
#930=IFCAXIS2PLACEMENT3D(#927,#928,#929);
#931=IFCEXTRUDEDAREASOLID(#926,#930,#925,0.38);
#932=IFCSHAPEREPRESENTATION(#11,'Body','SweptSolid',(#931));
#933=IFCPRODUCTDEFINITIONSHAPE($,$,(#932));
#934=IFCSTYLEDITEM(#931,(#121),'Galvanized ducts');
#935=IFCCARTESIANPOINT((14.,9.,6.0999999999999996));
#936=IFCDIRECTION((0.,0.,1.));
#937=IFCDIRECTION((0.,1.,0.));
#938=IFCAXIS2PLACEMENT3D(#935,#936,#937);
#939=IFCLOCALPLACEMENT($,#938);
#940=IFCDUCTSEGMENT('2qZDWC5wvAlQh5m10dsb7U',$,'Duct branch 02-03',$,$,#957,#951,$,$);
#941=IFCCARTESIANPOINTLIST2D(((0.,0.),(0.,0.40000000000000002),(4.2000000000000002,0.40000000000000002),(4.2000000000000002,0.),(0.,0.)));
#942=IFCINDEXEDPOLYCURVE(#941,$,.F.);
#943=IFCDIRECTION((0.,0.,1.));
#944=IFCARBITRARYCLOSEDPROFILEDEF(.AREA.,$,#942);
#945=IFCCARTESIANPOINT((0.,0.,0.));
#946=IFCDIRECTION((0.,0.,1.));
#947=IFCDIRECTION((1.,0.,0.));
#948=IFCAXIS2PLACEMENT3D(#945,#946,#947);
#949=IFCEXTRUDEDAREASOLID(#944,#948,#943,0.38);
#950=IFCSHAPEREPRESENTATION(#11,'Body','SweptSolid',(#949));
#951=IFCPRODUCTDEFINITIONSHAPE($,$,(#950));
#952=IFCSTYLEDITEM(#949,(#121),'Galvanized ducts');
#953=IFCCARTESIANPOINT((20.,9.,6.0999999999999996));
#954=IFCDIRECTION((0.,0.,1.));
#955=IFCDIRECTION((0.,1.,0.));
#956=IFCAXIS2PLACEMENT3D(#953,#954,#955);
#957=IFCLOCALPLACEMENT($,#956);
#958=IFCDUCTSEGMENT('2t3vaX0VzFTOpEwCjS1raV',$,'Supply duct 03',$,$,#975,#969,$,$);
#959=IFCCARTESIANPOINTLIST2D(((0.,0.),(0.,0.69999999999999996),(24.,0.69999999999999996),(24.,0.),(0.,0.)));
#960=IFCINDEXEDPOLYCURVE(#959,$,.F.);
#961=IFCDIRECTION((0.,0.,1.));
#962=IFCARBITRARYCLOSEDPROFILEDEF(.AREA.,$,#960);
#963=IFCCARTESIANPOINT((0.,0.,0.));
#964=IFCDIRECTION((0.,0.,1.));
#965=IFCDIRECTION((1.,0.,0.));
#966=IFCAXIS2PLACEMENT3D(#963,#964,#965);
#967=IFCEXTRUDEDAREASOLID(#962,#966,#961,0.55000000000000004);
#968=IFCSHAPEREPRESENTATION(#11,'Body','SweptSolid',(#967));
#969=IFCPRODUCTDEFINITIONSHAPE($,$,(#968));
#970=IFCSTYLEDITEM(#967,(#121),'Galvanized ducts');
#971=IFCCARTESIANPOINT((-3.,11.,6.0999999999999996));
#972=IFCDIRECTION((0.,0.,1.));
#973=IFCDIRECTION((1.,0.,0.));
#974=IFCAXIS2PLACEMENT3D(#971,#972,#973);
#975=IFCLOCALPLACEMENT($,#974);
#976=IFCDUCTSEGMENT('3hmkx54SD4OOyJnpU6AbNK',$,'Duct branch 03-00',$,$,#993,#987,$,$);
#977=IFCCARTESIANPOINTLIST2D(((0.,0.),(0.,0.40000000000000002),(4.2000000000000002,0.40000000000000002),(4.2000000000000002,0.),(0.,0.)));
#978=IFCINDEXEDPOLYCURVE(#977,$,.F.);
#979=IFCDIRECTION((0.,0.,1.));
#980=IFCARBITRARYCLOSEDPROFILEDEF(.AREA.,$,#978);
#981=IFCCARTESIANPOINT((0.,0.,0.));
#982=IFCDIRECTION((0.,0.,1.));
#983=IFCDIRECTION((1.,0.,0.));
#984=IFCAXIS2PLACEMENT3D(#981,#982,#983);
#985=IFCEXTRUDEDAREASOLID(#980,#984,#979,0.38);
#986=IFCSHAPEREPRESENTATION(#11,'Body','SweptSolid',(#985));
#987=IFCPRODUCTDEFINITIONSHAPE($,$,(#986));
#988=IFCSTYLEDITEM(#985,(#121),'Galvanized ducts');
#989=IFCCARTESIANPOINT((0.,11.,6.0999999999999996));
#990=IFCDIRECTION((0.,0.,1.));
#991=IFCDIRECTION((0.,1.,0.));
#992=IFCAXIS2PLACEMENT3D(#989,#990,#991);
#993=IFCLOCALPLACEMENT($,#992);
#994=IFCDUCTSEGMENT('3FOnhigHn2OwhWX2RUW83B',$,'Duct branch 03-01',$,$,#1011,#1005,$,$);
#995=IFCCARTESIANPOINTLIST2D(((0.,0.),(0.,0.40000000000000002),(4.2000000000000002,0.40000000000000002),(4.2000000000000002,0.),(0.,0.)));
#996=IFCINDEXEDPOLYCURVE(#995,$,.F.);
#997=IFCDIRECTION((0.,0.,1.));
#998=IFCARBITRARYCLOSEDPROFILEDEF(.AREA.,$,#996);
#999=IFCCARTESIANPOINT((0.,0.,0.));
#1000=IFCDIRECTION((0.,0.,1.));
#1001=IFCDIRECTION((1.,0.,0.));
#1002=IFCAXIS2PLACEMENT3D(#999,#1000,#1001);
#1003=IFCEXTRUDEDAREASOLID(#998,#1002,#997,0.38);
#1004=IFCSHAPEREPRESENTATION(#11,'Body','SweptSolid',(#1003));
#1005=IFCPRODUCTDEFINITIONSHAPE($,$,(#1004));
#1006=IFCSTYLEDITEM(#1003,(#121),'Galvanized ducts');
#1007=IFCCARTESIANPOINT((5.,11.,6.0999999999999996));
#1008=IFCDIRECTION((0.,0.,1.));
#1009=IFCDIRECTION((0.,1.,0.));
#1010=IFCAXIS2PLACEMENT3D(#1007,#1008,#1009);
#1011=IFCLOCALPLACEMENT($,#1010);
#1012=IFCDUCTSEGMENT('1BzBXQfH111fDoxX0mpAXO',$,'Duct branch 03-02',$,$,#1029,#1023,$,$);
#1013=IFCCARTESIANPOINTLIST2D(((0.,0.),(0.,0.40000000000000002),(4.2000000000000002,0.40000000000000002),(4.2000000000000002,0.),(0.,0.)));
#1014=IFCINDEXEDPOLYCURVE(#1013,$,.F.);
#1015=IFCDIRECTION((0.,0.,1.));
#1016=IFCARBITRARYCLOSEDPROFILEDEF(.AREA.,$,#1014);
#1017=IFCCARTESIANPOINT((0.,0.,0.));
#1018=IFCDIRECTION((0.,0.,1.));
#1019=IFCDIRECTION((1.,0.,0.));
#1020=IFCAXIS2PLACEMENT3D(#1017,#1018,#1019);
#1021=IFCEXTRUDEDAREASOLID(#1016,#1020,#1015,0.38);
#1022=IFCSHAPEREPRESENTATION(#11,'Body','SweptSolid',(#1021));
#1023=IFCPRODUCTDEFINITIONSHAPE($,$,(#1022));
#1024=IFCSTYLEDITEM(#1021,(#121),'Galvanized ducts');
#1025=IFCCARTESIANPOINT((14.,11.,6.0999999999999996));
#1026=IFCDIRECTION((0.,0.,1.));
#1027=IFCDIRECTION((0.,1.,0.));
#1028=IFCAXIS2PLACEMENT3D(#1025,#1026,#1027);
#1029=IFCLOCALPLACEMENT($,#1028);
#1030=IFCDUCTSEGMENT('1UQAE3Ug59yuP5vmC6gqhO',$,'Duct branch 03-03',$,$,#1047,#1041,$,$);
#1031=IFCCARTESIANPOINTLIST2D(((0.,0.),(0.,0.40000000000000002),(4.2000000000000002,0.40000000000000002),(4.2000000000000002,0.),(0.,0.)));
#1032=IFCINDEXEDPOLYCURVE(#1031,$,.F.);
#1033=IFCDIRECTION((0.,0.,1.));
#1034=IFCARBITRARYCLOSEDPROFILEDEF(.AREA.,$,#1032);
#1035=IFCCARTESIANPOINT((0.,0.,0.));
#1036=IFCDIRECTION((0.,0.,1.));
#1037=IFCDIRECTION((1.,0.,0.));
#1038=IFCAXIS2PLACEMENT3D(#1035,#1036,#1037);
#1039=IFCEXTRUDEDAREASOLID(#1034,#1038,#1033,0.38);
#1040=IFCSHAPEREPRESENTATION(#11,'Body','SweptSolid',(#1039));
#1041=IFCPRODUCTDEFINITIONSHAPE($,$,(#1040));
#1042=IFCSTYLEDITEM(#1039,(#121),'Galvanized ducts');
#1043=IFCCARTESIANPOINT((20.,11.,6.0999999999999996));
#1044=IFCDIRECTION((0.,0.,1.));
#1045=IFCDIRECTION((0.,1.,0.));
#1046=IFCAXIS2PLACEMENT3D(#1043,#1044,#1045);
#1047=IFCLOCALPLACEMENT($,#1046);
#1048=IFCCABLECARRIERSEGMENT('02EOZg4jL39gpJv2eMHTie',$,'Cable tray 2',$,$,#1065,#1059,$,$);
#1049=IFCCARTESIANPOINTLIST2D(((0.,0.),(0.,0.20000000000000001),(17.,0.20000000000000001),(17.,0.),(0.,0.)));
#1050=IFCINDEXEDPOLYCURVE(#1049,$,.F.);
#1051=IFCDIRECTION((0.,0.,1.));
#1052=IFCARBITRARYCLOSEDPROFILEDEF(.AREA.,$,#1050);
#1053=IFCCARTESIANPOINT((0.,0.,0.));
#1054=IFCDIRECTION((0.,0.,1.));
#1055=IFCDIRECTION((1.,0.,0.));
#1056=IFCAXIS2PLACEMENT3D(#1053,#1054,#1055);
#1057=IFCEXTRUDEDAREASOLID(#1052,#1056,#1051,0.14000000000000001);
#1058=IFCSHAPEREPRESENTATION(#11,'Body','SweptSolid',(#1057));
#1059=IFCPRODUCTDEFINITIONSHAPE($,$,(#1058));
#1060=IFCSTYLEDITEM(#1057,(#124),'Cable trays');
#1061=IFCCARTESIANPOINT((2.,-3.,7.));
#1062=IFCDIRECTION((0.,0.,1.));
#1063=IFCDIRECTION((0.,1.,0.));
#1064=IFCAXIS2PLACEMENT3D(#1061,#1062,#1063);
#1065=IFCLOCALPLACEMENT($,#1064);
#1066=IFCCABLECARRIERSEGMENT('36bocAYRv1lvS3x2hy7yfM',$,'Cable tray 10',$,$,#1083,#1077,$,$);
#1067=IFCCARTESIANPOINTLIST2D(((0.,0.),(0.,0.20000000000000001),(17.,0.20000000000000001),(17.,0.),(0.,0.)));
#1068=IFCINDEXEDPOLYCURVE(#1067,$,.F.);
#1069=IFCDIRECTION((0.,0.,1.));
#1070=IFCARBITRARYCLOSEDPROFILEDEF(.AREA.,$,#1068);
#1071=IFCCARTESIANPOINT((0.,0.,0.));
#1072=IFCDIRECTION((0.,0.,1.));
#1073=IFCDIRECTION((1.,0.,0.));
#1074=IFCAXIS2PLACEMENT3D(#1071,#1072,#1073);
#1075=IFCEXTRUDEDAREASOLID(#1070,#1074,#1069,0.14000000000000001);
#1076=IFCSHAPEREPRESENTATION(#11,'Body','SweptSolid',(#1075));
#1077=IFCPRODUCTDEFINITIONSHAPE($,$,(#1076));
#1078=IFCSTYLEDITEM(#1075,(#124),'Cable trays');
#1079=IFCCARTESIANPOINT((10.,-3.,7.));
#1080=IFCDIRECTION((0.,0.,1.));
#1081=IFCDIRECTION((0.,1.,0.));
#1082=IFCAXIS2PLACEMENT3D(#1079,#1080,#1081);
#1083=IFCLOCALPLACEMENT($,#1082);
#1084=IFCCABLECARRIERSEGMENT('1VLEr7EV5Ay9rqg$9_3MY2',$,'Cable tray 19',$,$,#1101,#1095,$,$);
#1085=IFCCARTESIANPOINTLIST2D(((0.,0.),(0.,0.20000000000000001),(17.,0.20000000000000001),(17.,0.),(0.,0.)));
#1086=IFCINDEXEDPOLYCURVE(#1085,$,.F.);
#1087=IFCDIRECTION((0.,0.,1.));
#1088=IFCARBITRARYCLOSEDPROFILEDEF(.AREA.,$,#1086);
#1089=IFCCARTESIANPOINT((0.,0.,0.));
#1090=IFCDIRECTION((0.,0.,1.));
#1091=IFCDIRECTION((1.,0.,0.));
#1092=IFCAXIS2PLACEMENT3D(#1089,#1090,#1091);
#1093=IFCEXTRUDEDAREASOLID(#1088,#1092,#1087,0.14000000000000001);
#1094=IFCSHAPEREPRESENTATION(#11,'Body','SweptSolid',(#1093));
#1095=IFCPRODUCTDEFINITIONSHAPE($,$,(#1094));
#1096=IFCSTYLEDITEM(#1093,(#124),'Cable trays');
#1097=IFCCARTESIANPOINT((19.,-3.,7.));
#1098=IFCDIRECTION((0.,0.,1.));
#1099=IFCDIRECTION((0.,1.,0.));
#1100=IFCAXIS2PLACEMENT3D(#1097,#1098,#1099);
#1101=IFCLOCALPLACEMENT($,#1100);
#1102=IFCPIPESEGMENT('1cQsFHr4f2oQMFztDOdZyR',$,'Fire protection pipe 0',$,$,#1119,#1113,$,$);
#1103=IFCCARTESIANPOINTLIST2D(((0.,0.),(0.,0.080000000000000002),(26.,0.080000000000000002),(26.,0.),(0.,0.)));
#1104=IFCINDEXEDPOLYCURVE(#1103,$,.F.);
#1105=IFCDIRECTION((0.,0.,1.));
#1106=IFCARBITRARYCLOSEDPROFILEDEF(.AREA.,$,#1104);
#1107=IFCCARTESIANPOINT((0.,0.,0.));
#1108=IFCDIRECTION((0.,0.,1.));
#1109=IFCDIRECTION((1.,0.,0.));
#1110=IFCAXIS2PLACEMENT3D(#1107,#1108,#1109);
#1111=IFCEXTRUDEDAREASOLID(#1106,#1110,#1105,0.080000000000000002);
#1112=IFCSHAPEREPRESENTATION(#11,'Body','SweptSolid',(#1111));
#1113=IFCPRODUCTDEFINITIONSHAPE($,$,(#1112));
#1114=IFCSTYLEDITEM(#1111,(#127),'Fire protection');
#1115=IFCCARTESIANPOINT((-3.,-1.,7.));
#1116=IFCDIRECTION((0.,0.,1.));
#1117=IFCDIRECTION((1.,0.,0.));
#1118=IFCAXIS2PLACEMENT3D(#1115,#1116,#1117);
#1119=IFCLOCALPLACEMENT($,#1118);
#1120=IFCPIPESEGMENT('1$CrpxT$L6tvzV_S7SOHIN',$,'Fire protection pipe 1',$,$,#1137,#1131,$,$);
#1121=IFCCARTESIANPOINTLIST2D(((0.,0.),(0.,0.080000000000000002),(26.,0.080000000000000002),(26.,0.),(0.,0.)));
#1122=IFCINDEXEDPOLYCURVE(#1121,$,.F.);
#1123=IFCDIRECTION((0.,0.,1.));
#1124=IFCARBITRARYCLOSEDPROFILEDEF(.AREA.,$,#1122);
#1125=IFCCARTESIANPOINT((0.,0.,0.));
#1126=IFCDIRECTION((0.,0.,1.));
#1127=IFCDIRECTION((1.,0.,0.));
#1128=IFCAXIS2PLACEMENT3D(#1125,#1126,#1127);
#1129=IFCEXTRUDEDAREASOLID(#1124,#1128,#1123,0.080000000000000002);
#1130=IFCSHAPEREPRESENTATION(#11,'Body','SweptSolid',(#1129));
#1131=IFCPRODUCTDEFINITIONSHAPE($,$,(#1130));
#1132=IFCSTYLEDITEM(#1129,(#127),'Fire protection');
#1133=IFCCARTESIANPOINT((-3.,4.,7.));
#1134=IFCDIRECTION((0.,0.,1.));
#1135=IFCDIRECTION((1.,0.,0.));
#1136=IFCAXIS2PLACEMENT3D(#1133,#1134,#1135);
#1137=IFCLOCALPLACEMENT($,#1136);
#1138=IFCPIPESEGMENT('2depqtDJfB3OnKs6in5S$3',$,'Fire protection pipe 2',$,$,#1155,#1149,$,$);
#1139=IFCCARTESIANPOINTLIST2D(((0.,0.),(0.,0.080000000000000002),(26.,0.080000000000000002),(26.,0.),(0.,0.)));
#1140=IFCINDEXEDPOLYCURVE(#1139,$,.F.);
#1141=IFCDIRECTION((0.,0.,1.));
#1142=IFCARBITRARYCLOSEDPROFILEDEF(.AREA.,$,#1140);
#1143=IFCCARTESIANPOINT((0.,0.,0.));
#1144=IFCDIRECTION((0.,0.,1.));
#1145=IFCDIRECTION((1.,0.,0.));
#1146=IFCAXIS2PLACEMENT3D(#1143,#1144,#1145);
#1147=IFCEXTRUDEDAREASOLID(#1142,#1146,#1141,0.080000000000000002);
#1148=IFCSHAPEREPRESENTATION(#11,'Body','SweptSolid',(#1147));
#1149=IFCPRODUCTDEFINITIONSHAPE($,$,(#1148));
#1150=IFCSTYLEDITEM(#1147,(#127),'Fire protection');
#1151=IFCCARTESIANPOINT((-3.,12.,7.));
#1152=IFCDIRECTION((0.,0.,1.));
#1153=IFCDIRECTION((1.,0.,0.));
#1154=IFCAXIS2PLACEMENT3D(#1151,#1152,#1153);
#1155=IFCLOCALPLACEMENT($,#1154);
ENDSEC;
END-ISO-10303-21;
